TITLE ""
FILE "1Q_t_1859-1868.mp3" MP3
  TRACK 01 AUDIO
    TITLE "1Q_t_1859-1868_01"
    INDEX 01 00:00:00
  TRACK 02 AUDIO
    TITLE "1Q_t_1859-1868_02"
    INDEX 01 00:01:10
  TRACK 03 AUDIO
    TITLE "1Q_t_1859-1868_03"
    INDEX 01 00:01:22
  TRACK 04 AUDIO
    TITLE "1Q_t_1859-1868_04"
    INDEX 01 00:03:20
  TRACK 05 AUDIO
    TITLE "1Q_t_1859-1868_05"
    INDEX 01 00:03:30
  TRACK 06 AUDIO
    TITLE "1Q_t_1859-1868_06"
    INDEX 01 00:07:51
  TRACK 07 AUDIO
    TITLE "1Q_t_1859-1868_07"
    INDEX 01 00:08:22
  TRACK 08 AUDIO
    TITLE "1Q_t_1859-1868_08"
    INDEX 01 00:09:29
  TRACK 09 AUDIO
    TITLE "1Q_t_1859-1868_09"
    INDEX 01 00:09:41
  TRACK 10 AUDIO
    TITLE "1Q_t_1859-1868_10"
    INDEX 01 00:10:56
  TRACK 11 AUDIO
    TITLE "1Q_t_1859-1868_11"
    INDEX 01 00:10:64
  TRACK 12 AUDIO
    TITLE "1Q_t_1859-1868_12"
    INDEX 01 00:15:10
  TRACK 13 AUDIO
    TITLE "1Q_t_1859-1868_13"
    INDEX 01 00:15:59
  TRACK 14 AUDIO
    TITLE "1Q_t_1859-1868_14"
    INDEX 01 00:16:64
  TRACK 15 AUDIO
    TITLE "1Q_t_1859-1868_15"
    INDEX 01 00:16:72
  TRACK 16 AUDIO
    TITLE "1Q_t_1859-1868_16"
    INDEX 01 00:19:15
  TRACK 17 AUDIO
    TITLE "1Q_t_1859-1868_17"
    INDEX 01 00:19:25
  TRACK 18 AUDIO
    TITLE "1Q_t_1859-1868_18"
    INDEX 01 00:23:29
  TRACK 19 AUDIO
    TITLE "1Q_t_1859-1868_19"
    INDEX 01 00:23:74
  TRACK 20 AUDIO
    TITLE "1Q_t_1859-1868_20"
    INDEX 01 00:25:02
  TRACK 21 AUDIO
    TITLE "1Q_t_1859-1868_21"
    INDEX 01 00:25:14
  TRACK 22 AUDIO
    TITLE "1Q_t_1859-1868_22"
    INDEX 01 00:27:17
  TRACK 23 AUDIO
    TITLE "1Q_t_1859-1868_23"
    INDEX 01 00:27:25
  TRACK 24 AUDIO
    TITLE "1Q_t_1859-1868_24"
    INDEX 01 00:31:58
  TRACK 25 AUDIO
    TITLE "1Q_t_1859-1868_25"
    INDEX 01 00:32:30
  TRACK 26 AUDIO
    TITLE "1Q_t_1859-1868_26"
    INDEX 01 00:33:35
  TRACK 27 AUDIO
    TITLE "1Q_t_1859-1868_27"
    INDEX 01 00:33:45
  TRACK 28 AUDIO
    TITLE "1Q_t_1859-1868_28"
    INDEX 01 00:35:22
  TRACK 29 AUDIO
    TITLE "1Q_t_1859-1868_29"
    INDEX 01 00:35:32
  TRACK 30 AUDIO
    TITLE "1Q_t_1859-1868_30"
    INDEX 01 00:39:73
  TRACK 31 AUDIO
    TITLE "1Q_t_1859-1868_31"
    INDEX 01 00:40:45
  TRACK 32 AUDIO
    TITLE "1Q_t_1859-1868_32"
    INDEX 01 00:41:46
  TRACK 33 AUDIO
    TITLE "1Q_t_1859-1868_33"
    INDEX 01 00:41:56
  TRACK 34 AUDIO
    TITLE "1Q_t_1859-1868_34"
    INDEX 01 00:43:65
  TRACK 35 AUDIO
    TITLE "1Q_t_1859-1868_35"
    INDEX 01 00:43:73
  TRACK 36 AUDIO
    TITLE "1Q_t_1859-1868_36"
    INDEX 01 00:47:41
  TRACK 37 AUDIO
    TITLE "1Q_t_1859-1868_37"
    INDEX 01 00:48:13
  TRACK 38 AUDIO
    TITLE "1Q_t_1859-1868_38"
    INDEX 01 00:49:26
  TRACK 39 AUDIO
    TITLE "1Q_t_1859-1868_39"
    INDEX 01 00:49:42
  TRACK 40 AUDIO
    TITLE "1Q_t_1859-1868_40"
    INDEX 01 00:51:55
  TRACK 41 AUDIO
    TITLE "1Q_t_1859-1868_41"
    INDEX 01 00:51:61
  TRACK 42 AUDIO
    TITLE "1Q_t_1859-1868_42"
    INDEX 01 00:56:34
  TRACK 43 AUDIO
    TITLE "1Q_t_1859-1868_43"
    INDEX 01 00:57:06
  TRACK 44 AUDIO
    TITLE "1Q_t_1859-1868_44"
    INDEX 01 00:58:18
  TRACK 45 AUDIO
    TITLE "1Q_t_1859-1868_45"
    INDEX 01 00:58:27
  TRACK 46 AUDIO
    TITLE "1Q_t_1859-1868_46"
    INDEX 01 01:01:73
  TRACK 47 AUDIO
    TITLE "1Q_t_1859-1868_47"
    INDEX 01 01:02:07
  TRACK 48 AUDIO
    TITLE "1Q_t_1859-1868_48"
    INDEX 01 01:06:64
  TRACK 49 AUDIO
    TITLE "1Q_t_1859-1868_49"
    INDEX 01 01:07:36
  TRACK 50 AUDIO
    TITLE "1Q_t_1859-1868_50"
    INDEX 01 01:08:34
  TRACK 51 AUDIO
    TITLE "1Q_t_1859-1868_51"
    INDEX 01 01:08:39
  TRACK 52 AUDIO
    TITLE "1Q_t_1859-1868_52"
    INDEX 01 01:11:67
  TRACK 53 AUDIO
    TITLE "1Q_t_1859-1868_53"
    INDEX 01 01:12:02
  TRACK 54 AUDIO
    TITLE "1Q_t_1859-1868_54"
    INDEX 01 01:16:15
  TRACK 55 AUDIO
    TITLE "1Q_t_1859-1868_55"
    INDEX 01 01:16:66
  TRACK 56 AUDIO
    TITLE "1Q_t_1859-1868_56"
    INDEX 01 01:18:08
  TRACK 57 AUDIO
    TITLE "1Q_t_1859-1868_57"
    INDEX 01 01:18:18
  TRACK 58 AUDIO
    TITLE "1Q_t_1859-1868_58"
    INDEX 01 01:20:13
  TRACK 59 AUDIO
    TITLE "1Q_t_1859-1868_59"
    INDEX 01 01:20:23
  TRACK 60 AUDIO
    TITLE "1Q_t_1859-1868_60"
    INDEX 01 01:25:73
